<?xml version="1.0" standalone="yes"?>
<svg xmlns="http://www.w3.org/2000/svg" width="3200" height="1200">
<path style="fill:#ffffff; stroke:none;" d="M0 0L0 1200L3200 1200L3200 0L0 0z"/>
<path style="fill:#a2a2a2; stroke:none;" d="M2721 243L2721 244L2726 244L2721 243z"/>
<path style="fill:#595959; stroke:none;" d="M2726 243L2726 244L2734 244L2726 243z"/>
<path style="fill:#010101; stroke:none;" d="M2734 243L2735 244L2734 243M2744 243L2745 244L2744 243z"/>
<path style="fill:#595959; stroke:none;" d="M2745 243L2745 244L2753 244L2745 243z"/>
<path style="fill:#a2a2a2; stroke:none;" d="M2753 243L2753 244L2758 244L2753 243M2709 244L2709 245L2712 245L2709 244z"/>
<path style="fill:#595959; stroke:none;" d="M2712 244L2712 245L2716 245L2712 244M2763 244L2763 245L2767 245L2763 244z"/>
<path style="fill:#a2a2a2; stroke:none;" d="M2767 244L2767 245L2770 245L2767 244M2700 245L2700 246L2703 246L2700 245z"/>
<path style="fill:#595959; stroke:none;" d="M2703.67 245.333L2704.33 245.667L2703.67 245.333z"/>
<path style="fill:#010101; stroke:none;" d="M2705 245L2706 246L2705 245M2773 245L2774 246L2773 245z"/>
<path style="fill:#595959; stroke:none;" d="M2774.67 245.333L2775.33 245.667L2774.67 245.333z"/>
<path style="fill:#a2a2a2; stroke:none;" d="M2776 245L2776 246L2779 246L2776 245M2692 246L2692 247L2695 247L2692 246z"/>
<path style="fill:#595959; stroke:none;" d="M2695.67 246.333L2696.33 246.667L2695.67 246.333M2782.67 246.333L2783.33 246.667L2782.67 246.333z"/>
<path style="fill:#a2a2a2; stroke:none;" d="M2784 246L2784 247L2787 247L2784 246M2686.67 247.333L2687.33 247.667L2686.67 247.333z"/>
<path style="fill:#595959; stroke:none;" d="M2688 247L2689 248L2688 247z"/>
<path style="fill:#010101; stroke:none;" d="M2689 247L2690 248L2689 247M2789 247L2790 248L2789 247z"/>
<path style="fill:#595959; stroke:none;" d="M2790 247L2791 248L2790 247z"/>
<path style="fill:#a2a2a2; stroke:none;" d="M2791.67 247.333L2792.33 247.667L2791.67 247.333M2680.67 248.333L2681.33 248.667L2680.67 248.333z"/>
<path style="fill:#595959; stroke:none;" d="M2682 248L2683 249L2682 248z"/>
<path style="fill:#010101; stroke:none;" d="M2683 248L2684 249L2683 248M2795 248L2796 249L2795 248z"/>
<path style="fill:#595959; stroke:none;" d="M2796 248L2797 249L2796 248z"/>
<path style="fill:#a2a2a2; stroke:none;" d="M2797.67 248.333L2798.33 248.667L2797.67 248.333M2675 249L2676 250L2675 249z"/>
<path style="fill:#595959; stroke:none;" d="M2676.67 249.333L2677.33 249.667L2676.67 249.333M2801.67 249.333L2802.33 249.667L2801.67 249.333z"/>
<path style="fill:#a2a2a2; stroke:none;" d="M2803 249L2804 250L2803 249M2669.67 250.333L2670.33 250.667L2669.67 250.333z"/>
<path style="fill:#595959; stroke:none;" d="M2671 250L2672 251L2671 250z"/>
<path style="fill:#010101; stroke:none;" d="M2672 250L2673 251L2672 250M2806 250L2807 251L2806 250z"/>
<path style="fill:#595959; stroke:none;" d="M2807 250L2808 251L2807 250z"/>
<path style="fill:#a2a2a2; stroke:none;" d="M2808.67 250.333L2809.33 250.667L2808.67 250.333M2665 251L2666 252L2665 251z"/>
<path style="fill:#595959; stroke:none;" d="M2666.67 251.333L2667.33 251.667L2666.67 251.333M2811.67 251.333L2812.33 251.667L2811.67 251.333z"/>
<path style="fill:#a2a2a2; stroke:none;" d="M2813 251L2814 252L2813 251M2660.67 252.333L2661.33 252.667L2660.67 252.333z"/>
<path style="fill:#595959; stroke:none;" d="M2662 252L2663 253L2662 252M2816 252L2817 253L2816 252z"/>
<path style="fill:#a2a2a2; stroke:none;" d="M2817.67 252.333L2818.33 252.667L2817.67 252.333M2656.67 253.333L2657.33 253.667L2656.67 253.333z"/>
<path style="fill:#595959; stroke:none;" d="M2658 253L2659 254L2658 253M2820 253L2821 254L2820 253z"/>
<path style="fill:#a2a2a2; stroke:none;" d="M2821.67 253.333L2822.33 253.667L2821.67 253.333M2652.67 254.333L2653.33 254.667L2652.67 254.333z"/>
<path style="fill:#595959; stroke:none;" d="M2654 254L2655 255L2654 254M2824 254L2825 255L2824 254z"/>
<path style="fill:#a2a2a2; stroke:none;" d="M2825.67 254.333L2826.33 254.667L2825.67 254.333M2649 255L2650 256L2649 255z"/>
<path style="fill:#595959; stroke:none;" d="M2650 255L2651 256L2650 255M2828 255L2829 256L2828 255z"/>
<path style="fill:#a2a2a2; stroke:none;" d="M2829 255L2830 256L2829 255M2645 256L2646 257L2645 256z"/>
<path style="fill:#595959; stroke:none;" d="M2646 256L2647 257L2646 256M2832 256L2833 257L2832 256z"/>
<path style="fill:#a2a2a2; stroke:none;" d="M2833 256L2834 257L2833 256M2642 257L2643 258L2642 257z"/>
<path style="fill:#595959; stroke:none;" d="M2643 257L2644 258L2643 257M2835 257L2836 258L2835 257z"/>
<path style="fill:#a2a2a2; stroke:none;" d="M2836 257L2837 258L2836 257M2638 258L2639 259L2638 258z"/>
<path style="fill:#595959; stroke:none;" d="M2639 258L2640 259L2639 258M2839 258L2840 259L2839 258z"/>
<path style="fill:#a2a2a2; stroke:none;" d="M2840 258L2841 259L2840 258M2635 259L2636 260L2635 259z"/>
<path style="fill:#595959; stroke:none;" d="M2636 259L2637 260L2636 259M2842 259L2843 260L2842 259z"/>
<path style="fill:#a2a2a2; stroke:none;" d="M2843 259L2844 260L2843 259M2632 260L2633 261L2632 260z"/>
<path style="fill:#595959; stroke:none;" d="M2633 260L2634 261L2633 260M2845 260L2846 261L2845 260z"/>
<path style="fill:#a2a2a2; stroke:none;" d="M2846 260L2847 261L2846 260M2629 261L2630 262L2629 261z"/>
<path style="fill:#595959; stroke:none;" d="M2630 261L2631 262L2630 261M2848 261L2849 262L2848 261z"/>
<path style="fill:#a2a2a2; stroke:none;" d="M2849 261L2850 262L2849 261M2626 262L2627 263L2626 262z"/>
<path style="fill:#010101; stroke:none;" d="M2627 262L2628 263L2627 262M2851 262L2852 263L2851 262z"/>
<path style="fill:#a2a2a2; stroke:none;" d="M2852 262L2853 263L2852 262M2623 263L2624 264L2623 263z"/>
<path style="fill:#595959; stroke:none;" d="M2624 263L2625 264L2624 263M2854 263L2855 264L2854 263z"/>
<path style="fill:#a2a2a2; stroke:none;" d="M2855 263L2856 264L2855 263M2620 264L2621 265L2620 264z"/>
<path style="fill:#595959; stroke:none;" d="M2621 264L2622 265L2621 264M2857 264L2858 265L2857 264z"/>
<path style="fill:#a2a2a2; stroke:none;" d="M2858 264L2859 265L2858 264M2617 265L2618 266L2617 265z"/>
<path style="fill:#595959; stroke:none;" d="M2618 265L2619 266L2618 265M2860 265L2861 266L2860 265z"/>
<path style="fill:#a2a2a2; stroke:none;" d="M2861 265L2862 266L2861 265z"/>
<path style="fill:#595959; stroke:none;" d="M2615 266L2616 267L2615 266M2863 266L2864 267L2863 266z"/>
<path style="fill:#a2a2a2; stroke:none;" d="M2612 267L2613 268L2612 267z"/>
<path style="fill:#010101; stroke:none;" d="M2613 267L2614 268L2613 267z"/>
<path style="fill:#595959; stroke:none;" d="M2865 267L2866 268L2865 267z"/>
<path style="fill:#a2a2a2; stroke:none;" d="M2866 267L2867 268L2866 267M2609 268L2610 269L2609 268z"/>
<path style="fill:#595959; stroke:none;" d="M2610 268L2611 269L2610 268M2868 268L2869 269L2868 268z"/>
<path style="fill:#a2a2a2; stroke:none;" d="M2869 268L2870 269L2869 268M2607 269L2608 270L2607 269z"/>
<path style="fill:#010101; stroke:none;" d="M2608 269L2609 270L2608 269M2870 269L2871 270L2870 269z"/>
<path style="fill:#a2a2a2; stroke:none;" d="M2871 269L2872 270L2871 269M2604 270L2605 271L2604 270z"/>
<path style="fill:#595959; stroke:none;" d="M2605 270L2606 271L2605 270M2873 270L2874 271L2873 270z"/>
<path style="fill:#a2a2a2; stroke:none;" d="M2874 270L2875 271L2874 270M2602 271L2603 272L2602 271z"/>
<path style="fill:#010101; stroke:none;" d="M2603 271L2604 272L2603 271M2875 271L2876 272L2875 271z"/>
<path style="fill:#a2a2a2; stroke:none;" d="M2876 271L2877 272L2876 271z"/>
<path style="fill:#595959; stroke:none;" d="M2600 272L2601 273L2600 272M2878 272L2879 273L2878 272z"/>
<path style="fill:#a2a2a2; stroke:none;" d="M2597 273L2598 274L2597 273z"/>
<path style="fill:#595959; stroke:none;" d="M2598 273L2599 274L2598 273M2880 273L2881 274L2880 273z"/>
<path style="fill:#a2a2a2; stroke:none;" d="M2881 273L2882 274L2881 273M2595 274L2596 275L2595 274z"/>
<path style="fill:#010101; stroke:none;" d="M2596 274L2597 275L2596 274M2882 274L2883 275L2882 274z"/>
<path style="fill:#a2a2a2; stroke:none;" d="M2883 274L2884 275L2883 274M2593 275L2594 276L2593 275M2885 275L2886 276L2885 275z"/>
<path style="fill:#595959; stroke:none;" d="M2591 276L2592 277L2591 276M2887 276L2888 277L2887 276M2589 277L2590 278L2589 277M2889 277L2890 278L2889 277z"/>
<path style="fill:#a2a2a2; stroke:none;" d="M2586 278L2587 279L2586 278z"/>
<path style="fill:#595959; stroke:none;" d="M2587 278L2588 279L2587 278M2891 278L2892 279L2891 278z"/>
<path style="fill:#a2a2a2; stroke:none;" d="M2892 278L2893 279L2892 278M2584 279L2585 280L2584 279z"/>
<path style="fill:#595959; stroke:none;" d="M2585 279L2586 280L2585 279M2893 279L2894 280L2893 279z"/>
<path style="fill:#a2a2a2; stroke:none;" d="M2894 279L2895 280L2894 279M2582 280L2583 281L2582 280z"/>
<path style="fill:#595959; stroke:none;" d="M2583 280L2584 281L2583 280z"/>
<path style="fill:#010101; stroke:none;" d="M2895 280L2896 281L2895 280z"/>
<path style="fill:#a2a2a2; stroke:none;" d="M2896 280L2897 281L2896 280M2580 281L2581 282L2580 281z"/>
<path style="fill:#595959; stroke:none;" d="M2581 281L2582 282L2581 281z"/>
<path style="fill:#010101; stroke:none;" d="M2897 281L2898 282L2897 281z"/>
<path style="fill:#a2a2a2; stroke:none;" d="M2898 281L2899 282L2898 281M2578 282L2579 283L2578 282z"/>
<path style="fill:#010101; stroke:none;" d="M2579 282L2580 283L2579 282M2899 282L2900 283L2899 282z"/>
<path style="fill:#a2a2a2; stroke:none;" d="M2900 282L2901 283L2900 282M2576 283L2577 284L2576 283z"/>
<path style="fill:#010101; stroke:none;" d="M2577 283L2578 284L2577 283M2901 283L2902 284L2901 283z"/>
<path style="fill:#a2a2a2; stroke:none;" d="M2902 283L2903 284L2902 283M2574 284L2575 285L2574 284z"/>
<path style="fill:#595959; stroke:none;" d="M2575 284L2576 285L2575 284M2903 284L2904 285L2903 284z"/>
<path style="fill:#a2a2a2; stroke:none;" d="M2904 284L2905 285L2904 284z"/>
<path style="fill:#595959; stroke:none;" d="M2573 285L2574 286L2573 285M2905 285L2906 286L2905 285z"/>
<path style="fill:#a2a2a2; stroke:none;" d="M2906 285L2907 286L2906 285z"/>
<path style="fill:#595959; stroke:none;" d="M2571 286L2572 287L2571 286M2907 286L2908 287L2907 286M2569 287L2570 288L2569 287M2909 287L2910 288L2909 287M2567 288L2568 289L2567 288M2911 288L2912 289L2911 288z"/>
<path style="fill:#a2a2a2; stroke:none;" d="M2565 289L2566 290L2565 289M2913 289L2914 290L2913 289M2563 290L2564 291L2563 290z"/>
<path style="fill:#010101; stroke:none;" d="M2564 290L2565 291L2564 290M2914 290L2915 291L2914 290z"/>
<path style="fill:#a2a2a2; stroke:none;" d="M2915 290L2916 291L2915 290z"/>
<path style="fill:#595959; stroke:none;" d="M2562 291L2563 292L2562 291M2916 291L2917 292L2916 291M2560 292L2561 293L2560 292M2918 292L2919 293L2918 292z"/>
<path style="fill:#a2a2a2; stroke:none;" d="M2558 293L2559 294L2558 293M2920 293L2921 294L2920 293M2556 294L2557 295L2556 294z"/>
<path style="fill:#595959; stroke:none;" d="M2557 294L2558 295L2557 294M2921 294L2922 295L2921 294z"/>
<path style="fill:#a2a2a2; stroke:none;" d="M2922 294L2923 295L2922 294z"/>
<path style="fill:#595959; stroke:none;" d="M2555 295L2556 296L2555 295M2923 295L2924 296L2923 295z"/>
<path style="fill:#a2a2a2; stroke:none;" d="M2553 296L2554 297L2553 296M2925 296L2926 297L2925 296M2551 297L2552 298L2551 297z"/>
<path style="fill:#010101; stroke:none;" d="M2552 297L2553 298L2552 297M2926 297L2927 298L2926 297z"/>
<path style="fill:#a2a2a2; stroke:none;" d="M2927 297L2928 298L2927 297z"/>
<path style="fill:#595959; stroke:none;" d="M2550 298L2551 299L2550 298M2928 298L2929 299L2928 298z"/>
<path style="fill:#a2a2a2; stroke:none;" d="M2548 299L2549 300L2548 299M2930 299L2931 300L2930 299z"/>
<path style="fill:#595959; stroke:none;" d="M2547 300L2548 301L2547 300M2931 300L2932 301L2931 300z"/>
<path style="fill:#a2a2a2; stroke:none;" d="M2545 301L2546 302L2545 301M2933 301L2934 302L2933 301z"/>
<path style="fill:#595959; stroke:none;" d="M2544 302L2545 303L2544 302M2934 302L2935 303L2934 302M2542 303L2541 305L2542 303M2936 303L2938 305L2936 303M2539 305L2540 306L2539 305M2939 305L2940 306L2939 305z"/>
<path style="fill:#010101; stroke:none;" d="M2538 306L2539 307L2538 306M2940 306L2941 307L2940 306z"/>
<path style="fill:#595959; stroke:none;" d="M2536 307L2535 309L2536 307M2942 307L2944 309L2942 307z"/>
<path style="fill:#a2a2a2; stroke:none;" d="M2533 309L2534 310L2533 309M2945 309L2946 310L2945 309z"/>
<path style="fill:#595959; stroke:none;" d="M2532 310L2533 311L2532 310M2946 310L2947 311L2946 310z"/>
<path style="fill:#a2a2a2; stroke:none;" d="M2530 311L2531 312L2530 311M2948 311L2949 312L2948 311z"/>
<path style="fill:#595959; stroke:none;" d="M2529 312L2530 313L2529 312M2949 312L2950 313L2949 312M2528 313L2529 314L2528 313M2950 313L2951 314L2950 313z"/>
<path style="fill:#a2a2a2; stroke:none;" d="M2526 314L2527 315L2526 314M2952 314L2953 315L2952 314z"/>
<path style="fill:#595959; stroke:none;" d="M2525 315L2526 316L2525 315M2953 315L2954 316L2953 315z"/>
<path style="fill:#a2a2a2; stroke:none;" d="M2523 316L2524 317L2523 316z"/>
<path style="fill:#010101; stroke:none;" d="M2524 316L2525 317L2524 316M2954 316L2955 317L2954 316z"/>
<path style="fill:#a2a2a2; stroke:none;" d="M2955 316L2956 317L2955 316M2522 317L2523 318L2522 317M2956 317L2957 318L2956 317z"/>
<path style="fill:#595959; stroke:none;" d="M2521 318L2522 319L2521 318M2957 318L2958 319L2957 318z"/>
<path style="fill:#010101; stroke:none;" d="M2520 319L2521 320L2520 319M2958 319L2959 320L2958 319z"/>
<path style="fill:#a2a2a2; stroke:none;" d="M2518 320L2519 321L2518 320M2960 320L2961 321L2960 320z"/>
<path style="fill:#595959; stroke:none;" d="M2517 321L2518 322L2517 321M2961 321L2962 322L2961 321M2516 322L2517 323L2516 322M2962 322L2963 323L2962 322z"/>
<path style="fill:#a2a2a2; stroke:none;" d="M2514 323L2513 325L2514 323M2964 323L2966 325L2964 323z"/>
<path style="fill:#595959; stroke:none;" d="M2512 325L2513 326L2512 325M2966 325L2967 326L2966 325M2511 326L2512 327L2511 326M2967 326L2968 327L2967 326z"/>
<path style="fill:#a2a2a2; stroke:none;" d="M2508 328L2509 329L2508 328M2970 328L2971 329L2970 328z"/>
<path style="fill:#595959; stroke:none;" d="M2507 329L2508 330L2507 329M2971 329L2972 330L2971 329M2506 330L2507 331L2506 330M2972 330L2973 331L2972 330M2505 331L2506 332L2505 331M2973 331L2974 332L2973 331z"/>
<path style="fill:#010101; stroke:none;" d="M2504 332L2505 333L2504 332M2974 332L2975 333L2974 332z"/>
<path style="fill:#a2a2a2; stroke:none;" d="M2502 333L2500 336L2502 333M2976 333L2979 336L2976 333z"/>
<path style="fill:#595959; stroke:none;" d="M2499 336L2500 337L2499 336M2979 336L2980 337L2979 336M2498 337L2499 338L2498 337M2980 337L2981 338L2980 337M2497 338L2498 339L2497 338M2981 338L2982 339L2981 338z"/>
<path style="fill:#010101; stroke:none;" d="M2496 339L2497 340L2496 339M2982 339L2983 340L2982 339M2495 340L2496 341L2495 340M2983 340L2984 341L2983 340z"/>
<path style="fill:#a2a2a2; stroke:none;" d="M2492 342L2481 354L2492 342M2986 342L2998 354L2986 342z"/>
<path style="fill:#595959; stroke:none;" d="M2478 357L2475 361L2478 357M3000 357L3004 361L3000 357z"/>
<path style="fill:#a2a2a2; stroke:none;" d="M2474 361L2475 362L2474 361M3004 361L3005 362L3004 361M2473 362L2474 363L2473 362M3005 362L3006 363L3005 362M2472 363L2473 364L2472 363M3006 363L3007 364L3006 363z"/>
<path style="fill:#010101; stroke:none;" d="M2471 365L2472 366L2471 365M3007 365L3008 366L3007 365z"/>
<path style="fill:#595959; stroke:none;" d="M2470 366L2471 367L2470 366M3008 366L3009 367L3008 366M2469 367L2470 368L2469 367M3009 367L3010 368L3009 367M2468 368L2469 369L2468 368M3010 368L3011 369L3010 368z"/>
<path style="fill:#a2a2a2; stroke:none;" d="M2467 369L2468 370L2467 369M3011 369L3012 370L3011 369z"/>
<path style="fill:#595959; stroke:none;" d="M2465 372L2464 374L2465 372M3013 372L3015 374L3013 372z"/>
<path style="fill:#a2a2a2; stroke:none;" d="M2463 374L2464 375L2463 374M3015 374L3016 375L3015 374M2462 375L2463 376L2462 375M3016 375L3017 376L3016 375z"/>
<path style="fill:#595959; stroke:none;" d="M2461 377L2460 379L2461 377M3017 377L3019 379L3017 377z"/>
<path style="fill:#a2a2a2; stroke:none;" d="M2459 379L2460 380L2459 379M3019 379L3020 380L3019 379z"/>
<path style="fill:#010101; stroke:none;" d="M2458 381L2459 382L2458 381M3020 381L3021 382L3020 381z"/>
<path style="fill:#595959; stroke:none;" d="M2457 382L2458 383L2457 382M3021 382L3022 383L3021 382z"/>
<path style="fill:#a2a2a2; stroke:none;" d="M2456 383L2457 384L2456 383M3022 383L3023 384L3022 383z"/>
<path style="fill:#010101; stroke:none;" d="M2455 385L2456 386L2455 385M3023 385L3024 386L3023 385z"/>
<path style="fill:#595959; stroke:none;" d="M2454 386L2455 387L2454 386M3024 386L3025 387L3024 386z"/>
<path style="fill:#a2a2a2; stroke:none;" d="M2453 387L2454 388L2453 387M3025 387L3026 388L3025 387z"/>
<path style="fill:#010101; stroke:none;" d="M2452 389L2453 390L2452 389z"/>
<path style="fill:#595959; stroke:none;" d="M3026 389L3028 391L3026 389M2451 390L2452 391L2451 390z"/>
<path style="fill:#a2a2a2; stroke:none;" d="M2450 391L2451 392L2450 391M3028 391L3029 392L3028 391z"/>
<path style="fill:#595959; stroke:none;" d="M2449 393L2450 394L2449 393M3029 393L3030 394L3029 393z"/>
<path style="fill:#a2a2a2; stroke:none;" d="M2448 394L2449 395L2448 394M3030 394L3031 395L3030 394z"/>
<path style="fill:#595959; stroke:none;" d="M2447 396L2446 398L2447 396M3031 396L3033 398L3031 396z"/>
<path style="fill:#010101; stroke:none;" d="M2445 399L2446 400L2445 399M3033 399L3034 400L3033 399z"/>
<path style="fill:#595959; stroke:none;" d="M2444 400L2445 401L2444 400M3034 400L3035 401L3034 400z"/>
<path style="fill:#010101; stroke:none;" d="M2443 402L2444 403L2443 402M3035 402L3036 403L3035 402z"/>
<path style="fill:#595959; stroke:none;" d="M2442 403L2443 404L2442 403M3036 403L3037 404L3036 403M2441 405L2442 406L2441 405M3037 405L3038 406L3037 405z"/>
<path style="fill:#a2a2a2; stroke:none;" d="M2440 406L2441 407L2440 406M3038 406L3039 407L3038 406z"/>
<path style="fill:#595959; stroke:none;" d="M2439 408L2440 409L2439 408M3039 408L3040 409L3039 408z"/>
<path style="fill:#a2a2a2; stroke:none;" d="M2438 409L2439 410L2438 409M3040 409L3041 410L3040 409z"/>
<path style="fill:#595959; stroke:none;" d="M2437 411L2438 412L2437 411z"/>
<path style="fill:#f33b5b; stroke:none;" d="M2799 411L2799 443L2831 443L2831 411L2799 411M2888 411L2888 443L2920 443L2920 411L2888 411z"/>
<path style="fill:#595959; stroke:none;" d="M3041 411L3042 412L3041 411z"/>
<path style="fill:#a2a2a2; stroke:none;" d="M2436 412L2437 413L2436 412M3042 412L3043 413L3042 412z"/>
<path style="fill:#010101; stroke:none;" d="M2436 413L2437 414L2436 413M3042 413L3043 414L3042 413z"/>
<path style="fill:#a2a2a2; stroke:none;" d="M2435 414L2436 415L2435 414M3043 414L3044 415L3043 414z"/>
<path style="fill:#595959; stroke:none;" d="M2434 416L2435 417L2434 416M3044 416L3045 417L3044 416z"/>
<path style="fill:#a2a2a2; stroke:none;" d="M2433 417L2434 418L2433 417M3045 417L3046 418L3045 417z"/>
<path style="fill:#595959; stroke:none;" d="M2433 418L2434 419L2433 418z"/>
<path style="fill:#010101; stroke:none;" d="M3045 418L3046 419L3045 418z"/>
<path style="fill:#a2a2a2; stroke:none;" d="M2432 419L2433 420L2432 419M3046 419L3047 420L3046 419z"/>
<path style="fill:#595959; stroke:none;" d="M2431 421L2432 422L2431 421M3047 421L3048 422L3047 421M2430 423L2431 424L2430 423M3048 423L3049 424L3048 423z"/>
<path style="fill:#a2a2a2; stroke:none;" d="M2429 424L2430 425L2429 424M3049 424L3050 425L3049 424z"/>
<path style="fill:#010101; stroke:none;" d="M2429 425L2430 426L2429 425M3049 425L3050 426L3049 425z"/>
<path style="fill:#a2a2a2; stroke:none;" d="M2428 426L2429 427L2428 426M3050 426L3051 427L3050 426z"/>
<path style="fill:#595959; stroke:none;" d="M2427 428L2428 429L2427 428M3051 428L3052 429L3051 428M2426 430L2427 431L2426 430M3052 430L3053 431L3052 430z"/>
<path style="fill:#010101; stroke:none;" d="M78 432L78 436L406 436L406 714L78 714L78 718L1343 718L1343 717C1307.91 715.489 1277.69 687.87 1262.75 658C1238.67 609.829 1239.72 537.944 1263.75 490C1278.38 460.809 1309 434.464 1343 433L1310 432L1236 432L976 432L78 432M1376 432L1376 433C1410.37 434.479 1440.49 460.566 1455.25 490C1478.81 537.016 1479.01 605.87 1458.42 654C1444.73 686.024 1412.67 716.243 1376 717L1376 718L2082 718L2082 717C2037.02 716.071 1994 678.62 1994 633L2032 633C2032 675.406 2070.48 687.014 2106 687C2130.57 686.99 2157.01 674.243 2158.91 647C2160.33 626.576 2148.54 612.807 2131 604.259C2094.13 586.291 2046.61 584.382 2018.44 551C1978.07 503.166 2021.97 434.198 2080 433L2061 432L2019 432L1875 432L1376 432M2114 432L2114 433C2158.35 433.915 2196 473.396 2196 517L2158 517C2158 474.994 2123.13 460.487 2086 463.089C2059.01 464.981 2035.43 486.452 2041.52 515C2046.26 537.224 2071.95 546.568 2091 552.996C2131.91 566.801 2195.55 581.256 2196 636L2197 636L2197 432L2114 432z"/>
<path style="fill:#595959; stroke:none;" d="M2425 432L2426 433L2425 432M3053 432L3054 433L3053 432z"/>
<path style="fill:#a2a2a2; stroke:none;" d="M3054 433L3055 434L3054 433z"/>
<path style="fill:#595959; stroke:none;" d="M2424 434L2425 435L2424 434M3054 434L3055 435L3054 434z"/>
<path style="fill:#a2a2a2; stroke:none;" d="M2423 435L2424 436L2423 435M3055 435L3056 436L3055 435z"/>
<path style="fill:#f33b5b; stroke:none;" d="M78 436L78 714L406 714L406 436L78 436M445 436L445 715L622 715L622 436L445 436M667 436L667 715L857 715L857 436L667 436z"/>
<path style="fill:#ffffff; stroke:none;" d="M890 436L938.884 639L957 715L992 715L1055 495L1056 495C1056.99 518.017 1067.44 541.934 1073.58 564C1087.53 614.205 1104.36 664.217 1116 715L1151 715L1168.87 640L1202.88 499L1218 436L1191 436C1188.11 436 1183.17 435.098 1180.74 437.028C1177.44 439.643 1177.24 448.121 1176.35 452C1173.14 465.993 1169.82 479.966 1166.79 494C1159.57 527.384 1151.99 560.766 1144.12 594C1139.08 615.261 1132.45 638.044 1132 660L1131 660C1129.2 637.942 1120.74 615.209 1114.71 594C1106.39 564.73 1098.76 535.263 1090.42 506C1085.97 490.368 1081.88 474.632 1077.42 459C1075.62 452.673 1074.82 443.934 1071.35 438.318C1068.47 433.657 1046.16 434.868 1041.13 436.318C1036.57 437.635 1035.96 445.101 1034.86 449L1023.58 489C1013.51 524.314 1003.65 559.687 993.579 595C987.618 615.905 979.908 637.408 977 659L976 659C975.783 632.779 967.065 606.399 961.424 581C950.675 532.603 938.021 484.549 928 436L890 436M1526 436L1526 715L1563 715L1563 603L1610 603L1627.61 604.603L1643.26 632L1674.14 689L1688.53 713.972L1700 715L1728 715C1727.37 702.898 1717.02 690.407 1711.31 680C1695.8 651.768 1676.43 623.697 1664 594C1723.72 576.92 1734.23 487.931 1686 452.921C1663.1 436.295 1635.02 436 1608 436L1526 436M1766 436L1766 715L1803 715L1803 649L1804.03 621L1836 586L1837 586L1905.13 676L1925.79 703L1935.17 713.972L1949 715L1980 715C1974.65 701.093 1960.74 687.794 1951.65 676C1932.23 650.796 1913.18 625.296 1893.88 600C1886.53 590.354 1879.15 580.704 1871.87 571C1869.58 567.938 1864.29 563.077 1864.33 559C1864.37 555.292 1869.18 551.59 1871.42 549C1878.15 541.245 1885.03 533.601 1891.93 526C1907.81 508.488 1923.08 490.403 1939.09 473C1949.64 461.518 1963.19 449.516 1971 436L1939 436L1925.04 437.028L1910.71 452L1884.71 481L1803 572L1803 436L1766 436z"/>
<path style="fill:#595959; stroke:none;" d="M2423 436L2424 437L2423 436M3055 436L3056 437L3055 436z"/>
<path style="fill:#a2a2a2; stroke:none;" d="M2422 437L2423 438L2422 437M3056 437L3057 438L3056 437z"/>
<path style="fill:#010101; stroke:none;" d="M2422 438L2423 439L2422 438M3056 438L3057 439L3056 438z"/>
<path style="fill:#a2a2a2; stroke:none;" d="M2421 439L2422 440L2421 439M3057 439L3058 440L3057 439z"/>
<path style="fill:#010101; stroke:none;" d="M2421 440L2422 441L2421 440M3057 440L3058 441L3057 440z"/>
<path style="fill:#a2a2a2; stroke:none;" d="M2420 441L2421 442L2420 441M3058 441L3059 442L3058 441z"/>
<path style="fill:#010101; stroke:none;" d="M2420 442L2421 443L2420 442M3058 442L3059 443L3058 442z"/>
<path style="fill:#a2a2a2; stroke:none;" d="M2419 443L2420 444L2419 443M3059 443L3060 444L3059 443z"/>
<path style="fill:#010101; stroke:none;" d="M2419 444L2420 445L2419 444M3059 444L3060 445L3059 444z"/>
<path style="fill:#a2a2a2; stroke:none;" d="M2418 445L2419 446L2418 445M3060 445L3061 446L3060 445z"/>
<path style="fill:#595959; stroke:none;" d="M2418 446L2419 447L2418 446M3060 446L3061 447L3060 446z"/>
<path style="fill:#a2a2a2; stroke:none;" d="M2417 447L2418 448L2417 447M3061 447L3062 448L3061 447z"/>
<path style="fill:#595959; stroke:none;" d="M2417 448L2418 449L2417 448M3061 448L3062 449L3061 448z"/>
<path style="fill:#a2a2a2; stroke:none;" d="M3062 449L3063 450L3062 449z"/>
<path style="fill:#595959; stroke:none;" d="M2416 450L2417 451L2416 450M3062 450L3063 451L3062 450M2415 452L2416 453L2415 452M3063 452L3064 453L3063 452z"/>
<path style="fill:#a2a2a2; stroke:none;" d="M2414 454L2415 455L2414 454M3064 454L3065 455L3064 454M2413 456L2414 457L2413 456M3065 456L3066 457L3065 456z"/>
<path style="fill:#595959; stroke:none;" d="M2413 457L2414 458L2413 457M3065 457L3066 458L3065 457z"/>
<path style="fill:#a2a2a2; stroke:none;" d="M2412 458L2413 459L2412 458M3066 458L3067 459L3066 458z"/>
<path style="fill:#595959; stroke:none;" d="M2412 459L2413 460L2412 459M3066 459L3067 460L3066 459M2411 461L2412 462L2411 461M3067 461L3068 462L3067 461z"/>
<path style="fill:#010101; stroke:none;" d="M1347 463.439C1318.92 467.826 1299.74 489.804 1291.34 516C1286.33 531.643 1285 547.692 1285 564C1285 610.516 1287.97 675.944 1346 686.384C1353.99 687.821 1363.98 687.813 1372 686.561C1400.86 682.054 1419.07 660.798 1427.66 634C1432.67 618.333 1434 601.343 1434 585C1434 538.303 1430.88 473.843 1373 463.615C1365 462.201 1355.03 462.184 1347 463.439z"/>
<path style="fill:#a2a2a2; stroke:none;" d="M2410 463L2411 464L2410 463M3068 463L3069 464L3068 463z"/>
<path style="fill:#010101; stroke:none;" d="M2410 464L2411 465L2410 464M3068 464L3069 465L3068 464z"/>
<path style="fill:#a2a2a2; stroke:none;" d="M2409 465L2410 466L2409 465M3069 465L3070 466L3069 465z"/>
<path style="fill:#595959; stroke:none;" d="M2409 466L2410 467L2409 466M3069 466L3070 467L3069 466z"/>
<path style="fill:#010101; stroke:none;" d="M1563 467L1563 572C1591.79 572 1630.53 578.255 1656 562.123C1686.52 542.792 1686.16 490.19 1653 473.608C1627.31 460.761 1590.95 467 1563 467z"/>
<path style="fill:#a2a2a2; stroke:none;" d="M2408 468L2409 469L2408 468M3070 468L3071 469L3070 468z"/>
<path style="fill:#010101; stroke:none;" d="M2408 469L2409 470L2408 469M3070 469L3071 470L3070 469z"/>
<path style="fill:#a2a2a2; stroke:none;" d="M2407 470L2408 471L2407 470M3071 470L3072 471L3071 470z"/>
<path style="fill:#595959; stroke:none;" d="M2407 471L2408 472L2407 471M3071 471L3072 472L3071 471z"/>
<path style="fill:#a2a2a2; stroke:none;" d="M2406 473L2407 474L2406 473M3072 473L3073 474L3072 473z"/>
<path style="fill:#595959; stroke:none;" d="M2406 474L2407 475L2406 474M3072 474L3073 475L3072 474M2405 476L2406 477L2405 476M3073 476L3074 477L3073 476z"/>
<path style="fill:#a2a2a2; stroke:none;" d="M2404 478L2405 479L2404 478M3074 478L3075 479L3074 478z"/>
<path style="fill:#595959; stroke:none;" d="M2404 479L2405 480L2404 479M3074 479L3075 480L3074 479z"/>
<path style="fill:#a2a2a2; stroke:none;" d="M2403 481L2404 482L2403 481M3075 481L3076 482L3075 481z"/>
<path style="fill:#595959; stroke:none;" d="M2403 482L2404 483L2403 482M3075 482L3076 483L3075 482z"/>
<path style="fill:#a2a2a2; stroke:none;" d="M2402 484L2403 485L2402 484M3076 484L3077 485L3076 484z"/>
<path style="fill:#595959; stroke:none;" d="M2402 485L2403 486L2402 485M3076 485L3077 486L3076 485z"/>
<path style="fill:#a2a2a2; stroke:none;" d="M2401 487L2402 488L2401 487M3077 487L3078 488L3077 487z"/>
<path style="fill:#010101; stroke:none;" d="M2401 488L2402 489L2401 488M3077 488L3078 489L3077 488z"/>
<path style="fill:#a2a2a2; stroke:none;" d="M2400 490L2401 491L2400 490M3078 490L3079 491L3078 490z"/>
<path style="fill:#595959; stroke:none;" d="M2400 491L2401 492L2400 491M3078 491L3079 492L3078 491z"/>
<path style="fill:#a2a2a2; stroke:none;" d="M2399 493L2400 494L2399 493M3079 493L3080 494L3079 493z"/>
<path style="fill:#595959; stroke:none;" d="M2399 494L2400 495L2399 494M3079 494L3080 495L3079 494z"/>
<path style="fill:#a2a2a2; stroke:none;" d="M2398 496L2399 497L2398 496M3080 496L3081 497L3080 496z"/>
<path style="fill:#595959; stroke:none;" d="M2398 497L2399 498L2398 497M3080 497L3081 498L3080 497z"/>
<path style="fill:#a2a2a2; stroke:none;" d="M2397 499L2398 500L2397 499M3081 499L3082 500L3081 499z"/>
<path style="fill:#595959; stroke:none;" d="M2397 500L2398 501L2397 500M3081 500L3082 501L3081 500z"/>
<path style="fill:#a2a2a2; stroke:none;" d="M2396 503L2397 504L2396 503M3082 503L3083 504L3082 503z"/>
<path style="fill:#595959; stroke:none;" d="M2396 504L2397 505L2396 504M3082 504L3083 505L3082 504z"/>
<path style="fill:#a2a2a2; stroke:none;" d="M2395 506L2396 507L2395 506M3083 506L3084 507L3083 506z"/>
<path style="fill:#595959; stroke:none;" d="M2395 507L2396 508L2395 507M3083 507L3084 508L3083 507z"/>
<path style="fill:#a2a2a2; stroke:none;" d="M2394 510L2395 511L2394 510M3084 510L3085 511L3084 510z"/>
<path style="fill:#595959; stroke:none;" d="M2394 511L2395 512L2394 511M3084 511L3085 512L3084 511z"/>
<path style="fill:#a2a2a2; stroke:none;" d="M2393.33 513.667L2393.67 514.333L2393.33 513.667M3085.33 513.667L3085.67 514.333L3085.33 513.667z"/>
<path style="fill:#595959; stroke:none;" d="M2393 515L2394 516L2393 515M3085 515L3086 516L3085 515z"/>
<path style="fill:#a2a2a2; stroke:none;" d="M2392.33 517.667L2392.67 518.333L2392.33 517.667M3086.33 517.667L3086.67 518.333L3086.33 517.667z"/>
<path style="fill:#595959; stroke:none;" d="M2392 519L2393 520L2392 519M3086 519L3087 520L3086 519z"/>
<path style="fill:#a2a2a2; stroke:none;" d="M2391.33 521.667L2391.67 522.333L2391.33 521.667M3087.33 521.667L3087.67 522.333L3087.33 521.667z"/>
<path style="fill:#595959; stroke:none;" d="M2391 523L2392 524L2391 523M3087 523L3088 524L3087 523z"/>
<path style="fill:#a2a2a2; stroke:none;" d="M2390 526L2391 527L2390 526M3088 526L3089 527L3088 526z"/>
<path style="fill:#595959; stroke:none;" d="M2390.33 527.667L2390.67 528.333L2390.33 527.667M3088.33 527.667L3088.67 528.333L3088.33 527.667z"/>
<path style="fill:#a2a2a2; stroke:none;" d="M2389 531L2390 532L2389 531M3089 531L3090 532L3089 531z"/>
<path style="fill:#595959; stroke:none;" d="M2389 532L2390 533L2389 532M3089 532L3090 533L3089 532z"/>
<path style="fill:#010101; stroke:none;" d="M2389 533L2390 534L2389 533M3089 533L3090 534L3089 533z"/>
<path style="fill:#a2a2a2; stroke:none;" d="M2388 536L2389 537L2388 536M3090 536L3091 537L3090 536z"/>
<path style="fill:#595959; stroke:none;" d="M2388.33 537.667L2388.67 538.333L2388.33 537.667M3090.33 537.667L3090.67 538.333L3090.33 537.667z"/>
<path style="fill:#a2a2a2; stroke:none;" d="M2387.33 541.667L2387.67 542.333L2387.33 541.667M3091.33 541.667L3091.67 542.333L3091.33 541.667z"/>
<path style="fill:#595959; stroke:none;" d="M2387 543L2388 544L2387 543M3091 543L3092 544L3091 543z"/>
<path style="fill:#010101; stroke:none;" d="M2387 544L2388 545L2387 544M3091 544L3092 545L3091 544z"/>
<path style="fill:#a2a2a2; stroke:none;" d="M2386.33 547.667L2386.67 548.333L2386.33 547.667M3092.33 547.667L3092.67 548.333L3092.33 547.667z"/>
<path style="fill:#595959; stroke:none;" d="M2386 549L2387 550L2386 549M3092 549L3093 550L3092 549z"/>
<path style="fill:#010101; stroke:none;" d="M2386 550L2387 551L2386 550M3092 550L3093 551L3092 550z"/>
<path style="fill:#a2a2a2; stroke:none;" d="M2385 553L2385 556L2386 556L2385 553M3093 553L3093 556L3094 556L3093 553z"/>
<path style="fill:#595959; stroke:none;" d="M2385.33 556.667L2385.67 557.333L2385.33 556.667M3093.33 556.667L3093.67 557.333L3093.33 556.667z"/>
<path style="fill:#a2a2a2; stroke:none;" d="M2384 561L2384 564L2385 564L2384 561M3094 561L3094 564L3095 564L3094 561z"/>
<path style="fill:#595959; stroke:none;" d="M2384.33 564.667L2384.67 565.333L2384.33 564.667M3094.33 564.667L3094.67 565.333L3094.33 564.667z"/>
<path style="fill:#010101; stroke:none;" d="M2384 566L2385 567L2384 566M3094 566L3095 567L3094 566z"/>
<path style="fill:#a2a2a2; stroke:none;" d="M2383 570L2383 573L2384 573L2383 570M3095 570L3095 573L3096 573L3095 570z"/>
<path style="fill:#595959; stroke:none;" d="M2383 573L2383 576L2384 576L2383 573M3095 573L3095 576L3096 576L3095 573z"/>
<path style="fill:#010101; stroke:none;" d="M2383 576L2384 577L2383 576M3095 576L3096 577L3095 576z"/>
<path style="fill:#a2a2a2; stroke:none;" d="M2382 582L2382 587L2383 587L2382 582M3096 582L3096 587L3097 587L3096 582z"/>
<path style="fill:#595959; stroke:none;" d="M2382 587L2382 595L2383 595L2382 587M3096 587L3096 595L3097 595L3096 587z"/>
<path style="fill:#010101; stroke:none;" d="M2382 595L2383 596L2382 595M3096 595L3097 596L3096 595M2382 605L2383 606L2382 605M3096 605L3097 606L3096 605z"/>
<path style="fill:#595959; stroke:none;" d="M2382 606L2382 614L2383 614L2382 606M3096 606L3096 614L3097 614L3096 606z"/>
<path style="fill:#a2a2a2; stroke:none;" d="M2382 614L2382 619L2383 619L2382 614M3096 614L3096 619L3097 619L3096 614z"/>
<path style="fill:#010101; stroke:none;" d="M2383 624L2384 625L2383 624M3095 624L3096 625L3095 624z"/>
<path style="fill:#595959; stroke:none;" d="M2383 625L2383 628L2384 628L2383 625M3095 625L3095 628L3096 628L3095 625z"/>
<path style="fill:#a2a2a2; stroke:none;" d="M2383 628L2383 631L2384 631L2383 628M3095 628L3095 631L3096 631L3095 628z"/>
<path style="fill:#010101; stroke:none;" d="M2384 634L2385 635L2384 634M3094 634L3095 635L3094 634z"/>
<path style="fill:#595959; stroke:none;" d="M2384.33 635.667L2384.67 636.333L2384.33 635.667M3094.33 635.667L3094.67 636.333L3094.33 635.667z"/>
<path style="fill:#a2a2a2; stroke:none;" d="M2384 637L2384 640L2385 640L2384 637M3094 637L3094 640L3095 640L3094 637z"/>
<path style="fill:#595959; stroke:none;" d="M2385.33 643.667L2385.67 644.333L2385.33 643.667M3093.33 643.667L3093.67 644.333L3093.33 643.667z"/>
<path style="fill:#a2a2a2; stroke:none;" d="M2385 645L2385 648L2386 648L2385 645M3093 645L3093 648L3094 648L3093 645z"/>
<path style="fill:#010101; stroke:none;" d="M2196 650C2195.68 688.573 2153.89 716.703 2118 717L2118 718L2197 718L2197 672L2196 650M2386 650L2387 651L2386 650M3092 650L3093 651L3092 650z"/>
<path style="fill:#595959; stroke:none;" d="M2386 651L2387 652L2386 651M3092 651L3093 652L3092 651z"/>
<path style="fill:#a2a2a2; stroke:none;" d="M2386.33 652.667L2386.67 653.333L2386.33 652.667M3092.33 652.667L3092.67 653.333L3092.33 652.667z"/>
<path style="fill:#010101; stroke:none;" d="M2387 656L2388 657L2387 656M3091 656L3092 657L3091 656z"/>
<path style="fill:#595959; stroke:none;" d="M2387 657L2388 658L2387 657M3091 657L3092 658L3091 657z"/>
<path style="fill:#a2a2a2; stroke:none;" d="M2387.33 658.667L2387.67 659.333L2387.33 658.667M3091.33 658.667L3091.67 659.333L3091.33 658.667z"/>
<path style="fill:#595959; stroke:none;" d="M2388.33 662.667L2388.67 663.333L2388.33 662.667M3090.33 662.667L3090.67 663.333L3090.33 662.667z"/>
<path style="fill:#a2a2a2; stroke:none;" d="M2388 664L2389 665L2388 664M3090 664L3091 665L3090 664z"/>
<path style="fill:#010101; stroke:none;" d="M2389 667L2390 668L2389 667M3089 667L3090 668L3089 667z"/>
<path style="fill:#595959; stroke:none;" d="M2389 668L2390 669L2389 668M3089 668L3090 669L3089 668z"/>
<path style="fill:#a2a2a2; stroke:none;" d="M2389 669L2390 670L2389 669M3089 669L3090 670L3089 669z"/>
<path style="fill:#595959; stroke:none;" d="M2390.33 672.667L2390.67 673.333L2390.33 672.667M3088.33 672.667L3088.67 673.333L3088.33 672.667z"/>
<path style="fill:#a2a2a2; stroke:none;" d="M2390 674L2391 675L2390 674M3088 674L3089 675L3088 674z"/>
<path style="fill:#595959; stroke:none;" d="M2391 677L2392 678L2391 677M3087 677L3088 678L3087 677z"/>
<path style="fill:#a2a2a2; stroke:none;" d="M2391.33 678.667L2391.67 679.333L2391.33 678.667M3087.33 678.667L3087.67 679.333L3087.33 678.667z"/>
<path style="fill:#595959; stroke:none;" d="M2392 681L2393 682L2392 681M3086 681L3087 682L3086 681z"/>
<path style="fill:#a2a2a2; stroke:none;" d="M2392.33 682.667L2392.67 683.333L2392.33 682.667M3086.33 682.667L3086.67 683.333L3086.33 682.667z"/>
<path style="fill:#595959; stroke:none;" d="M2393 685L2394 686L2393 685M3085 685L3086 686L3085 685z"/>
<path style="fill:#a2a2a2; stroke:none;" d="M2393.33 686.667L2393.67 687.333L2393.33 686.667M3085.33 686.667L3085.67 687.333L3085.33 686.667z"/>
<path style="fill:#595959; stroke:none;" d="M2394 689L2395 690L2394 689M3084 689L3085 690L3084 689z"/>
<path style="fill:#a2a2a2; stroke:none;" d="M2394 690L2395 691L2394 690M3084 690L3085 691L3084 690z"/>
<path style="fill:#595959; stroke:none;" d="M2395 693L2396 694L2395 693M3083 693L3084 694L3083 693z"/>
<path style="fill:#a2a2a2; stroke:none;" d="M2395 694L2396 695L2395 694M3083 694L3084 695L3083 694z"/>
<path style="fill:#595959; stroke:none;" d="M2396 696L2397 697L2396 696M3082 696L3083 697L3082 696z"/>
<path style="fill:#a2a2a2; stroke:none;" d="M2396 697L2397 698L2396 697M3082 697L3083 698L3082 697z"/>
<path style="fill:#595959; stroke:none;" d="M2397 700L2398 701L2397 700M3081 700L3082 701L3081 700z"/>
<path style="fill:#a2a2a2; stroke:none;" d="M2397 701L2398 702L2397 701M3081 701L3082 702L3081 701z"/>
<path style="fill:#595959; stroke:none;" d="M2398 703L2399 704L2398 703M3080 703L3081 704L3080 703z"/>
<path style="fill:#a2a2a2; stroke:none;" d="M2398 704L2399 705L2398 704M3080 704L3081 705L3080 704z"/>
<path style="fill:#595959; stroke:none;" d="M2399 706L2400 707L2399 706M3079 706L3080 707L3079 706z"/>
<path style="fill:#a2a2a2; stroke:none;" d="M2399 707L2400 708L2399 707M3079 707L3080 708L3079 707z"/>
<path style="fill:#595959; stroke:none;" d="M2400 709L2401 710L2400 709M3078 709L3079 710L3078 709z"/>
<path style="fill:#a2a2a2; stroke:none;" d="M2400 710L2401 711L2400 710M3078 710L3079 711L3078 710z"/>
<path style="fill:#010101; stroke:none;" d="M2401 712L2402 713L2401 712M3077 712L3078 713L3077 712z"/>
<path style="fill:#a2a2a2; stroke:none;" d="M2401 713L2402 714L2401 713M3077 713L3078 714L3077 713z"/>
<path style="fill:#595959; stroke:none;" d="M2402 715L2403 716L2402 715M3076 715L3077 716L3076 715z"/>
<path style="fill:#a2a2a2; stroke:none;" d="M2402 716L2403 717L2402 716M3076 716L3077 717L3076 716z"/>
<path style="fill:#595959; stroke:none;" d="M2403 718L2404 719L2403 718M3075 718L3076 719L3075 718z"/>
<path style="fill:#a2a2a2; stroke:none;" d="M2403 719L2404 720L2403 719M3075 719L3076 720L3075 719z"/>
<path style="fill:#595959; stroke:none;" d="M2404 721L2405 722L2404 721M3074 721L3075 722L3074 721z"/>
<path style="fill:#a2a2a2; stroke:none;" d="M2404 722L2405 723L2404 722M3074 722L3075 723L3074 722z"/>
<path style="fill:#595959; stroke:none;" d="M2405 724L2406 725L2405 724M3073 724L3074 725L3073 724M2406 726L2407 727L2406 726M3072 726L3073 727L3072 726z"/>
<path style="fill:#a2a2a2; stroke:none;" d="M2406 727L2407 728L2406 727M3072 727L3073 728L3072 727z"/>
<path style="fill:#595959; stroke:none;" d="M2407 729L2408 730L2407 729M3071 729L3072 730L3071 729z"/>
<path style="fill:#a2a2a2; stroke:none;" d="M2407 730L2408 731L2407 730M3071 730L3072 731L3071 730z"/>
<path style="fill:#010101; stroke:none;" d="M2408 731L2409 732L2408 731M3070 731L3071 732L3070 731z"/>
<path style="fill:#a2a2a2; stroke:none;" d="M2408 732L2409 733L2408 732M3070 732L3071 733L3070 732z"/>
<path style="fill:#595959; stroke:none;" d="M2409 734L2410 735L2409 734M3069 734L3070 735L3069 734z"/>
<path style="fill:#a2a2a2; stroke:none;" d="M2409 735L2410 736L2409 735M3069 735L3070 736L3069 735z"/>
<path style="fill:#010101; stroke:none;" d="M2410 736L2411 737L2410 736M3068 736L3069 737L3068 736z"/>
<path style="fill:#a2a2a2; stroke:none;" d="M2410 737L2411 738L2410 737M3068 737L3069 738L3068 737z"/>
<path style="fill:#595959; stroke:none;" d="M2411 739L2412 740L2411 739M3067 739L3068 740L3067 739M2412 741L2413 742L2412 741M3066 741L3067 742L3066 741z"/>
<path style="fill:#a2a2a2; stroke:none;" d="M2412 742L2413 743L2412 742M3066 742L3067 743L3066 742z"/>
<path style="fill:#595959; stroke:none;" d="M2413 743L2414 744L2413 743M3065 743L3066 744L3065 743z"/>
<path style="fill:#a2a2a2; stroke:none;" d="M2413 744L2414 745L2413 744M3065 744L3066 745L3065 744M2414 746L2415 747L2414 746M3064 746L3065 747L3064 746z"/>
<path style="fill:#595959; stroke:none;" d="M2415 748L2416 749L2415 748M3063 748L3064 749L3063 748M2416 750L2417 751L2416 750M3062 750L3063 751L3062 750z"/>
<path style="fill:#a2a2a2; stroke:none;" d="M3062 751L3063 752L3062 751z"/>
<path style="fill:#595959; stroke:none;" d="M2417 752L2418 753L2417 752M3061 752L3062 753L3061 752z"/>
<path style="fill:#a2a2a2; stroke:none;" d="M2417 753L2418 754L2417 753M3061 753L3062 754L3061 753z"/>
<path style="fill:#595959; stroke:none;" d="M2418 754L2419 755L2418 754M3060 754L3061 755L3060 754z"/>
<path style="fill:#a2a2a2; stroke:none;" d="M2418 755L2419 756L2418 755M3060 755L3061 756L3060 755z"/>
<path style="fill:#010101; stroke:none;" d="M2419 756L2420 757L2419 756M3059 756L3060 757L3059 756z"/>
<path style="fill:#a2a2a2; stroke:none;" d="M2419 757L2420 758L2419 757M3059 757L3060 758L3059 757z"/>
<path style="fill:#010101; stroke:none;" d="M2420 758L2421 759L2420 758M3058 758L3059 759L3058 758z"/>
<path style="fill:#a2a2a2; stroke:none;" d="M2420 759L2421 760L2420 759M3058 759L3059 760L3058 759z"/>
<path style="fill:#010101; stroke:none;" d="M2421 760L2422 761L2421 760M3057 760L3058 761L3057 760z"/>
<path style="fill:#a2a2a2; stroke:none;" d="M2421 761L2422 762L2421 761M3057 761L3058 762L3057 761z"/>
<path style="fill:#010101; stroke:none;" d="M2422 762L2423 763L2422 762M3056 762L3057 763L3056 762z"/>
<path style="fill:#a2a2a2; stroke:none;" d="M2422 763L2423 764L2422 763M3056 763L3057 764L3056 763z"/>
<path style="fill:#595959; stroke:none;" d="M2423 764L2424 765L2423 764M3055 764L3056 765L3055 764z"/>
<path style="fill:#a2a2a2; stroke:none;" d="M2423 765L2424 766L2423 765M3055 765L3056 766L3055 765z"/>
<path style="fill:#595959; stroke:none;" d="M2424 766L2425 767L2424 766M3054 766L3055 767L3054 766z"/>
<path style="fill:#a2a2a2; stroke:none;" d="M2424 767L2425 768L2424 767M3054 767L3055 768L3054 767z"/>
<path style="fill:#595959; stroke:none;" d="M2425 768L2426 769L2425 768M3053 768L3054 769L3053 768M2426 770L2427 771L2426 770M3052 770L3053 771L3052 770M2427 772L2428 773L2427 772M3051 772L3052 773L3051 772z"/>
<path style="fill:#a2a2a2; stroke:none;" d="M2428 774L2429 775L2428 774M3050 774L3051 775L3050 774z"/>
<path style="fill:#010101; stroke:none;" d="M2429 775L2430 776L2429 775M3049 775L3050 776L3049 775z"/>
<path style="fill:#a2a2a2; stroke:none;" d="M2429 776L2430 777L2429 776M3049 776L3050 777L3049 776z"/>
<path style="fill:#595959; stroke:none;" d="M2430 777L2431 778L2430 777M3048 777L3049 778L3048 777M2431 779L2432 780L2431 779M3047 779L3048 780L3047 779z"/>
<path style="fill:#a2a2a2; stroke:none;" d="M2432 781L2433 782L2432 781M3046 781L3047 782L3046 781z"/>
<path style="fill:#595959; stroke:none;" d="M2433 782L2434 783L2433 782z"/>
<path style="fill:#010101; stroke:none;" d="M3045 782L3046 783L3045 782z"/>
<path style="fill:#a2a2a2; stroke:none;" d="M2433 783L2434 784L2433 783M3045 783L3046 784L3045 783z"/>
<path style="fill:#595959; stroke:none;" d="M2434 784L2435 785L2434 784M3044 784L3045 785L3044 784z"/>
<path style="fill:#a2a2a2; stroke:none;" d="M2435 786L2436 787L2435 786M3043 786L3044 787L3043 786z"/>
<path style="fill:#010101; stroke:none;" d="M2436 787L2437 788L2436 787M3042 787L3043 788L3042 787z"/>
<path style="fill:#a2a2a2; stroke:none;" d="M2436 788L2437 789L2436 788M3042 788L3043 789L3042 788z"/>
<path style="fill:#595959; stroke:none;" d="M2437 789L2438 790L2437 789M3041 789L3042 790L3041 789z"/>
<path style="fill:#a2a2a2; stroke:none;" d="M2438 791L2439 792L2438 791M3040 791L3041 792L3040 791z"/>
<path style="fill:#595959; stroke:none;" d="M2439 792L2440 793L2439 792M3039 792L3040 793L3039 792z"/>
<path style="fill:#a2a2a2; stroke:none;" d="M2440 794L2441 795L2440 794M3038 794L3039 795L3038 794z"/>
<path style="fill:#595959; stroke:none;" d="M2441 795L2442 796L2441 795M3037 795L3038 796L3037 795M2442 797L2443 798L2442 797M3036 797L3037 798L3036 797z"/>
<path style="fill:#010101; stroke:none;" d="M2443 798L2444 799L2443 798M3035 798L3036 799L3035 798z"/>
<path style="fill:#595959; stroke:none;" d="M2444 800L2445 801L2444 800M3034 800L3035 801L3034 800z"/>
<path style="fill:#010101; stroke:none;" d="M2445 801L2446 802L2445 801M3033 801L3034 802L3033 801z"/>
<path style="fill:#595959; stroke:none;" d="M2446 803L2448 805L2446 803M3032 803L3031 805L3032 803z"/>
<path style="fill:#a2a2a2; stroke:none;" d="M2448 806L2449 807L2448 806M3030 806L3031 807L3030 806z"/>
<path style="fill:#595959; stroke:none;" d="M2449 807L2450 808L2449 807M3029 807L3030 808L3029 807z"/>
<path style="fill:#a2a2a2; stroke:none;" d="M2450 809L2451 810L2450 809M3028 809L3029 810L3028 809z"/>
<path style="fill:#595959; stroke:none;" d="M2451 810L2452 811L2451 810M3027 810L3028 811L3027 810z"/>
<path style="fill:#010101; stroke:none;" d="M2452 811L2453 812L2452 811M3026 811L3027 812L3026 811z"/>
<path style="fill:#a2a2a2; stroke:none;" d="M2453 813L2454 814L2453 813M3025 813L3026 814L3025 813z"/>
<path style="fill:#595959; stroke:none;" d="M2454 814L2455 815L2454 814M3024 814L3025 815L3024 814z"/>
<path style="fill:#a2a2a2; stroke:none;" d="M2455 816L2457 818L2455 816M3022 817L3023 818L3022 817z"/>
<path style="fill:#595959; stroke:none;" d="M2457 818L2458 819L2457 818M3021 818L3022 819L3021 818z"/>
<path style="fill:#010101; stroke:none;" d="M2458 819L2459 820L2458 819M3020 819L3021 820L3020 819z"/>
<path style="fill:#a2a2a2; stroke:none;" d="M2459 821L2460 822L2459 821M3019 821L3020 822L3019 821z"/>
<path style="fill:#595959; stroke:none;" d="M2460 822L2461 823L2460 822M3018 822L3019 823L3018 822M2461 823L2462 824L2461 823M3017 823L3018 824L3017 823z"/>
<path style="fill:#a2a2a2; stroke:none;" d="M2462 825L2464 827L2462 825M3016 825L3015 827L3016 825z"/>
<path style="fill:#595959; stroke:none;" d="M2464 827L2465 828L2464 827M3014 827L3015 828L3014 827M2465 828L2466 829L2465 828M3013 828L3014 829L3013 828z"/>
<path style="fill:#a2a2a2; stroke:none;" d="M2467 831L2468 832L2467 831M3011 831L3012 832L3011 831z"/>
<path style="fill:#595959; stroke:none;" d="M2468 832L2469 833L2468 832M3010 832L3011 833L3010 832M2469 833L2470 834L2469 833M3009 833L3010 834L3009 833M2470 834L2471 835L2470 834M3008 834L3009 835L3008 834z"/>
<path style="fill:#010101; stroke:none;" d="M2471 835L2472 836L2471 835M3007 835L3008 836L3007 835z"/>
<path style="fill:#a2a2a2; stroke:none;" d="M2472 837L2475 840L2472 837M3006 837L3004 840L3006 837z"/>
<path style="fill:#595959; stroke:none;" d="M2475 840L2476 841L2475 840M3003 840L3004 841L3003 840M2476 841L2477 842L2476 841M3002 841L3003 842L3002 841M2477 842L2478 843L2477 842M3001 842L3002 843L3001 842z"/>
<path style="fill:#010101; stroke:none;" d="M2478 843L2479 844L2478 843M3000 843L3001 844L3000 843z"/>
<path style="fill:#a2a2a2; stroke:none;" d="M2481 847L2493 859L2481 847M2997 847L2986 859L2997 847z"/>
<path style="fill:#010101; stroke:none;" d="M2495 860L2497 862L2495 860M2983 860L2982 862L2983 860z"/>
<path style="fill:#595959; stroke:none;" d="M2497 862L2498 863L2497 862M2981 862L2982 863L2981 862M2498 863L2499 864L2498 863M2980 863L2981 864L2980 863M2499 864L2500 865L2499 864M2979 864L2980 865L2979 864M2500 865L2501 866L2500 865M2978 865L2979 866L2978 865z"/>
<path style="fill:#a2a2a2; stroke:none;" d="M2501 866L2502 867L2501 866M2977 866L2978 867L2977 866M2502 867L2503 868L2502 867M2976 867L2977 868L2976 867z"/>
<path style="fill:#010101; stroke:none;" d="M2504 868L2505 869L2504 868M2974 868L2975 869L2974 868z"/>
<path style="fill:#595959; stroke:none;" d="M2505 869L2506 870L2505 869M2973 869L2974 870L2973 869M2506 870L2507 871L2506 870M2972 870L2973 871L2972 870M2507 871L2508 872L2507 871M2971 871L2972 872L2971 871z"/>
<path style="fill:#a2a2a2; stroke:none;" d="M2508 872L2509 873L2508 872M2970 872L2971 873L2970 872z"/>
<path style="fill:#595959; stroke:none;" d="M2511 874L2513 876L2511 874M2967 874L2966 876L2967 874z"/>
<path style="fill:#a2a2a2; stroke:none;" d="M2513 876L2514 877L2513 876M2965 876L2966 877L2965 876M2514 877L2515 878L2514 877M2964 877L2965 878L2964 877z"/>
<path style="fill:#595959; stroke:none;" d="M2516 878L2518 880L2516 878M2962 878L2961 880L2962 878z"/>
<path style="fill:#a2a2a2; stroke:none;" d="M2518 880L2519 881L2518 880M2960 880L2961 881L2960 880z"/>
<path style="fill:#010101; stroke:none;" d="M2520 881L2521 882L2520 881M2958 881L2959 882L2958 881z"/>
<path style="fill:#595959; stroke:none;" d="M2521 882L2522 883L2521 882M2957 882L2958 883L2957 882z"/>
<path style="fill:#a2a2a2; stroke:none;" d="M2522 883L2523 884L2522 883M2956 883L2957 884L2956 883M2523 884L2524 885L2523 884M2955 884L2956 885L2955 884z"/>
<path style="fill:#595959; stroke:none;" d="M2525 885L2526 886L2525 885M2953 885L2954 886L2953 885z"/>
<path style="fill:#a2a2a2; stroke:none;" d="M2526 886L2527 887L2526 886M2952 886L2953 887L2952 886z"/>
<path style="fill:#010101; stroke:none;" d="M2528 887L2529 888L2528 887M2950 887L2951 888L2950 887z"/>
<path style="fill:#595959; stroke:none;" d="M2529 888L2530 889L2529 888M2949 888L2950 889L2949 888z"/>
<path style="fill:#a2a2a2; stroke:none;" d="M2530 889L2531 890L2530 889M2948 889L2949 890L2948 889z"/>
<path style="fill:#595959; stroke:none;" d="M2532 890L2533 891L2532 890M2946 890L2947 891L2946 890z"/>
<path style="fill:#a2a2a2; stroke:none;" d="M2533 891L2534 892L2533 891M2945 891L2946 892L2945 891z"/>
<path style="fill:#595959; stroke:none;" d="M2535 892L2537 894L2535 892M2943 892L2942 894L2943 892z"/>
<path style="fill:#010101; stroke:none;" d="M2538 894L2539 895L2538 894M2940 894L2941 895L2940 894z"/>
<path style="fill:#595959; stroke:none;" d="M2539 895L2540 896L2539 895M2939 895L2940 896L2939 895z"/>
<path style="fill:#010101; stroke:none;" d="M2541 896L2542 897L2541 896M2937 896L2938 897L2937 896z"/>
<path style="fill:#595959; stroke:none;" d="M2542 897L2543 898L2542 897M2936 897L2937 898L2936 897M2544 898L2545 899L2544 898M2934 898L2935 899L2934 898z"/>
<path style="fill:#a2a2a2; stroke:none;" d="M2545 899L2546 900L2545 899M2933 899L2934 900L2933 899z"/>
<path style="fill:#595959; stroke:none;" d="M2547 900L2548 901L2547 900M2931 900L2932 901L2931 900z"/>
<path style="fill:#a2a2a2; stroke:none;" d="M2548 901L2549 902L2548 901M2930 901L2931 902L2930 901z"/>
<path style="fill:#595959; stroke:none;" d="M2550 902L2551 903L2550 902M2928 902L2929 903L2928 902z"/>
<path style="fill:#a2a2a2; stroke:none;" d="M2551 903L2552 904L2551 903z"/>
<path style="fill:#010101; stroke:none;" d="M2552 903L2553 904L2552 903M2926 903L2927 904L2926 903z"/>
<path style="fill:#a2a2a2; stroke:none;" d="M2927 903L2928 904L2927 903M2553 904L2554 905L2553 904M2925 904L2926 905L2925 904z"/>
<path style="fill:#595959; stroke:none;" d="M2555 905L2556 906L2555 905M2923 905L2924 906L2923 905z"/>
<path style="fill:#a2a2a2; stroke:none;" d="M2556 906L2557 907L2556 906z"/>
<path style="fill:#010101; stroke:none;" d="M2557 906L2558 907L2557 906M2921 906L2922 907L2921 906z"/>
<path style="fill:#a2a2a2; stroke:none;" d="M2922 906L2923 907L2922 906M2558 907L2559 908L2558 907M2920 907L2921 908L2920 907z"/>
<path style="fill:#595959; stroke:none;" d="M2560 908L2561 909L2560 908M2918 908L2919 909L2918 908M2562 909L2563 910L2562 909M2916 909L2917 910L2916 909z"/>
<path style="fill:#a2a2a2; stroke:none;" d="M2563 910L2564 911L2563 910z"/>
<path style="fill:#010101; stroke:none;" d="M2564 910L2565 911L2564 910M2914 910L2915 911L2914 910z"/>
<path style="fill:#a2a2a2; stroke:none;" d="M2915 910L2916 911L2915 910M2565 911L2566 912L2565 911M2913 911L2914 912L2913 911z"/>
<path style="fill:#595959; stroke:none;" d="M2567 912L2568 913L2567 912M2911 912L2912 913L2911 912M2569 913L2570 914L2569 913M2909 913L2910 914L2909 913M2571 914L2572 915L2571 914M2907 914L2908 915L2907 914z"/>
<path style="fill:#a2a2a2; stroke:none;" d="M2572 915L2573 916L2572 915z"/>
<path style="fill:#595959; stroke:none;" d="M2573 915L2574 916L2573 915M2905 915L2906 916L2905 915z"/>
<path style="fill:#a2a2a2; stroke:none;" d="M2906 915L2907 916L2906 915M2574 916L2575 917L2574 916z"/>
<path style="fill:#595959; stroke:none;" d="M2575 916L2576 917L2575 916M2903 916L2904 917L2903 916z"/>
<path style="fill:#a2a2a2; stroke:none;" d="M2904 916L2905 917L2904 916M2576 917L2577 918L2576 917z"/>
<path style="fill:#010101; stroke:none;" d="M2577 917L2578 918L2577 917M2901 917L2902 918L2901 917z"/>
<path style="fill:#a2a2a2; stroke:none;" d="M2902 917L2903 918L2902 917M2578 918L2579 919L2578 918z"/>
<path style="fill:#010101; stroke:none;" d="M2579 918L2580 919L2579 918M2899 918L2900 919L2899 918z"/>
<path style="fill:#a2a2a2; stroke:none;" d="M2900 918L2901 919L2900 918M2580 919L2581 920L2580 919z"/>
<path style="fill:#010101; stroke:none;" d="M2581 919L2582 920L2581 919M2897 919L2898 920L2897 919z"/>
<path style="fill:#a2a2a2; stroke:none;" d="M2898 919L2899 920L2898 919M2582 920L2583 921L2582 920z"/>
<path style="fill:#595959; stroke:none;" d="M2583 920L2584 921L2583 920M2895 920L2896 921L2895 920z"/>
<path style="fill:#a2a2a2; stroke:none;" d="M2896 920L2897 921L2896 920M2584 921L2585 922L2584 921z"/>
<path style="fill:#595959; stroke:none;" d="M2585 921L2586 922L2585 921M2893 921L2894 922L2893 921z"/>
<path style="fill:#a2a2a2; stroke:none;" d="M2894 921L2895 922L2894 921M2586 922L2587 923L2586 922z"/>
<path style="fill:#595959; stroke:none;" d="M2587 922L2588 923L2587 922M2891 922L2892 923L2891 922z"/>
<path style="fill:#a2a2a2; stroke:none;" d="M2892 922L2893 923L2892 922z"/>
<path style="fill:#595959; stroke:none;" d="M2589 923L2590 924L2589 923M2889 923L2890 924L2889 923M2591 924L2592 925L2591 924M2887 924L2888 925L2887 924z"/>
<path style="fill:#a2a2a2; stroke:none;" d="M2593 925L2594 926L2593 925M2885 925L2886 926L2885 925M2595 926L2596 927L2595 926z"/>
<path style="fill:#010101; stroke:none;" d="M2596 926L2597 927L2596 926M2882 926L2883 927L2882 926z"/>
<path style="fill:#a2a2a2; stroke:none;" d="M2883 926L2884 927L2883 926M2597 927L2598 928L2597 927z"/>
<path style="fill:#595959; stroke:none;" d="M2598 927L2599 928L2598 927M2880 927L2881 928L2880 927z"/>
<path style="fill:#a2a2a2; stroke:none;" d="M2881 927L2882 928L2881 927z"/>
<path style="fill:#595959; stroke:none;" d="M2600 928L2601 929L2600 928M2878 928L2879 929L2878 928z"/>
<path style="fill:#a2a2a2; stroke:none;" d="M2602 929L2603 930L2602 929z"/>
<path style="fill:#010101; stroke:none;" d="M2603 929L2604 930L2603 929M2875 929L2876 930L2875 929z"/>
<path style="fill:#a2a2a2; stroke:none;" d="M2876 929L2877 930L2876 929M2604 930L2605 931L2604 930z"/>
<path style="fill:#595959; stroke:none;" d="M2605 930L2606 931L2605 930M2873 930L2874 931L2873 930z"/>
<path style="fill:#a2a2a2; stroke:none;" d="M2874 930L2875 931L2874 930M2607 931L2608 932L2607 931z"/>
<path style="fill:#010101; stroke:none;" d="M2608 931L2609 932L2608 931M2870 931L2871 932L2870 931z"/>
<path style="fill:#a2a2a2; stroke:none;" d="M2871 931L2872 932L2871 931M2609 932L2610 933L2609 932z"/>
<path style="fill:#595959; stroke:none;" d="M2610 932L2611 933L2610 932M2868 932L2869 933L2868 932z"/>
<path style="fill:#a2a2a2; stroke:none;" d="M2869 932L2870 933L2869 932M2612 933L2613 934L2612 933z"/>
<path style="fill:#010101; stroke:none;" d="M2613 933L2614 934L2613 933z"/>
<path style="fill:#595959; stroke:none;" d="M2865 933L2866 934L2865 933z"/>
<path style="fill:#a2a2a2; stroke:none;" d="M2866 933L2867 934L2866 933z"/>
<path style="fill:#595959; stroke:none;" d="M2615 934L2616 935L2615 934M2863 934L2864 935L2863 934z"/>
<path style="fill:#a2a2a2; stroke:none;" d="M2617 935L2618 936L2617 935z"/>
<path style="fill:#595959; stroke:none;" d="M2618 935L2619 936L2618 935M2860 935L2861 936L2860 935z"/>
<path style="fill:#a2a2a2; stroke:none;" d="M2861 935L2862 936L2861 935M2620 936L2621 937L2620 936z"/>
<path style="fill:#595959; stroke:none;" d="M2621 936L2622 937L2621 936M2857 936L2858 937L2857 936z"/>
<path style="fill:#a2a2a2; stroke:none;" d="M2858 936L2859 937L2858 936M2623 937L2624 938L2623 937z"/>
<path style="fill:#595959; stroke:none;" d="M2624 937L2625 938L2624 937M2854 937L2855 938L2854 937z"/>
<path style="fill:#a2a2a2; stroke:none;" d="M2855 937L2856 938L2855 937M2626 938L2627 939L2626 938z"/>
<path style="fill:#010101; stroke:none;" d="M2627 938L2628 939L2627 938M2851 938L2852 939L2851 938z"/>
<path style="fill:#a2a2a2; stroke:none;" d="M2852 938L2853 939L2852 938M2629 939L2630 940L2629 939z"/>
<path style="fill:#595959; stroke:none;" d="M2630 939L2631 940L2630 939M2848 939L2849 940L2848 939z"/>
<path style="fill:#a2a2a2; stroke:none;" d="M2849 939L2850 940L2849 939M2632 940L2633 941L2632 940z"/>
<path style="fill:#595959; stroke:none;" d="M2633 940L2634 941L2633 940M2845 940L2846 941L2845 940z"/>
<path style="fill:#a2a2a2; stroke:none;" d="M2846 940L2847 941L2846 940M2635 941L2636 942L2635 941z"/>
<path style="fill:#595959; stroke:none;" d="M2636 941L2637 942L2636 941M2842 941L2843 942L2842 941z"/>
<path style="fill:#a2a2a2; stroke:none;" d="M2843 941L2844 942L2843 941M2638 942L2639 943L2638 942z"/>
<path style="fill:#595959; stroke:none;" d="M2639 942L2640 943L2639 942M2839 942L2840 943L2839 942z"/>
<path style="fill:#a2a2a2; stroke:none;" d="M2840 942L2841 943L2840 942M2642 943L2643 944L2642 943z"/>
<path style="fill:#595959; stroke:none;" d="M2643 943L2644 944L2643 943M2835 943L2836 944L2835 943z"/>
<path style="fill:#a2a2a2; stroke:none;" d="M2836 943L2837 944L2836 943M2645 944L2646 945L2645 944z"/>
<path style="fill:#595959; stroke:none;" d="M2646 944L2647 945L2646 944M2832 944L2833 945L2832 944z"/>
<path style="fill:#a2a2a2; stroke:none;" d="M2833 944L2834 945L2833 944M2649 945L2650 946L2649 945z"/>
<path style="fill:#595959; stroke:none;" d="M2650 945L2651 946L2650 945M2828 945L2829 946L2828 945z"/>
<path style="fill:#a2a2a2; stroke:none;" d="M2829 945L2830 946L2829 945M2652.67 946.333L2653.33 946.667L2652.67 946.333z"/>
<path style="fill:#595959; stroke:none;" d="M2654 946L2655 947L2654 946M2824 946L2825 947L2824 946z"/>
<path style="fill:#a2a2a2; stroke:none;" d="M2825.67 946.333L2826.33 946.667L2825.67 946.333M2656.67 947.333L2657.33 947.667L2656.67 947.333z"/>
<path style="fill:#595959; stroke:none;" d="M2658 947L2659 948L2658 947M2820 947L2821 948L2820 947z"/>
<path style="fill:#a2a2a2; stroke:none;" d="M2821.67 947.333L2822.33 947.667L2821.67 947.333M2660.67 948.333L2661.33 948.667L2660.67 948.333z"/>
<path style="fill:#595959; stroke:none;" d="M2662 948L2663 949L2662 948M2816 948L2817 949L2816 948z"/>
<path style="fill:#a2a2a2; stroke:none;" d="M2817.67 948.333L2818.33 948.667L2817.67 948.333M2665 949L2666 950L2665 949z"/>
<path style="fill:#595959; stroke:none;" d="M2666.67 949.333L2667.33 949.667L2666.67 949.333M2811.67 949.333L2812.33 949.667L2811.67 949.333z"/>
<path style="fill:#a2a2a2; stroke:none;" d="M2813 949L2814 950L2813 949M2669.67 950.333L2670.33 950.667L2669.67 950.333z"/>
<path style="fill:#595959; stroke:none;" d="M2671 950L2672 951L2671 950z"/>
<path style="fill:#010101; stroke:none;" d="M2672 950L2673 951L2672 950M2806 950L2807 951L2806 950z"/>
<path style="fill:#595959; stroke:none;" d="M2807 950L2808 951L2807 950z"/>
<path style="fill:#a2a2a2; stroke:none;" d="M2808.67 950.333L2809.33 950.667L2808.67 950.333M2675 951L2676 952L2675 951z"/>
<path style="fill:#595959; stroke:none;" d="M2676.67 951.333L2677.33 951.667L2676.67 951.333M2801.67 951.333L2802.33 951.667L2801.67 951.333z"/>
<path style="fill:#a2a2a2; stroke:none;" d="M2803 951L2804 952L2803 951M2680.67 952.333L2681.33 952.667L2680.67 952.333z"/>
<path style="fill:#595959; stroke:none;" d="M2682 952L2683 953L2682 952z"/>
<path style="fill:#010101; stroke:none;" d="M2683 952L2684 953L2683 952M2795 952L2796 953L2795 952z"/>
<path style="fill:#595959; stroke:none;" d="M2796 952L2797 953L2796 952z"/>
<path style="fill:#a2a2a2; stroke:none;" d="M2797.67 952.333L2798.33 952.667L2797.67 952.333M2686.67 953.333L2687.33 953.667L2686.67 953.333z"/>
<path style="fill:#595959; stroke:none;" d="M2688 953L2689 954L2688 953z"/>
<path style="fill:#010101; stroke:none;" d="M2689 953L2690 954L2689 953M2789 953L2790 954L2789 953z"/>
<path style="fill:#595959; stroke:none;" d="M2790 953L2791 954L2790 953z"/>
<path style="fill:#a2a2a2; stroke:none;" d="M2791.67 953.333L2792.33 953.667L2791.67 953.333M2692.67 954.333L2693.33 954.667L2692.67 954.333z"/>
<path style="fill:#595959; stroke:none;" d="M2694 954L2694 955L2697 955L2694 954M2782 954L2782 955L2785 955L2782 954z"/>
<path style="fill:#a2a2a2; stroke:none;" d="M2785.67 954.333L2786.33 954.667L2785.67 954.333M2700 955L2700 956L2703 956L2700 955z"/>
<path style="fill:#595959; stroke:none;" d="M2703.67 955.333L2704.33 955.667L2703.67 955.333M2774.67 955.333L2775.33 955.667L2774.67 955.333z"/>
<path style="fill:#a2a2a2; stroke:none;" d="M2776 955L2776 956L2779 956L2776 955M2709 956L2709 957L2712 957L2709 956z"/>
<path style="fill:#595959; stroke:none;" d="M2712 956L2712 957L2716 957L2712 956M2763 956L2763 957L2767 957L2763 956z"/>
<path style="fill:#a2a2a2; stroke:none;" d="M2767 956L2767 957L2770 957L2767 956M2721 957L2721 958L2726 958L2721 957z"/>
<path style="fill:#595959; stroke:none;" d="M2726 957L2726 958L2734 958L2726 957z"/>
<path style="fill:#010101; stroke:none;" d="M2734 957L2735 958L2734 957M2744 957L2745 958L2744 957z"/>
<path style="fill:#595959; stroke:none;" d="M2745 957L2745 958L2753 958L2745 957z"/>
<path style="fill:#a2a2a2; stroke:none;" d="M2753 957L2753 958L2758 958L2753 957z"/>
</svg>
